HIERARCHY
ROOT Hips
{
  OFFSET 40.9192 92.6879 18.85
  CHANNELS 6 Xposition Yposition Zposition Zrotation Xrotation Yrotation
  JOINT LeftUpLeg
  {
    OFFSET 8.64259 1.95398 -2.38835
    CHANNELS 3 Zrotation Xrotation Yrotation
    JOINT LeftLeg
    {
      OFFSET 43.7702 0 0
      CHANNELS 3 Zrotation Xrotation Yrotation
      JOINT LeftFoot
      {
        OFFSET 40.6238 0 0
        CHANNELS 3 Zrotation Xrotation Yrotation
        JOINT LeftToeBase
        {
          OFFSET 12.7242 0 0
          CHANNELS 3 Zrotation Xrotation Yrotation
          End Site
          {
            OFFSET 0 0 0
          }
        }
      }
    }
  }
  JOINT RightUpLeg
  {
    OFFSET -8.2249 1.95398 -2.59336
    CHANNELS 3 Zrotation Xrotation Yrotation
    JOINT RightLeg
    {
      OFFSET 43.5653 0 0
      CHANNELS 3 Zrotation Xrotation Yrotation
      JOINT RightFoot
      {
        OFFSET 40.6238 0 0
        CHANNELS 3 Zrotation Xrotation Yrotation
        JOINT RightToeBase
        {
          OFFSET 12.7242 0 0
          CHANNELS 3 Zrotation Xrotation Yrotation
          End Site
          {
            OFFSET 0 0 0
          }
        }
      }
    }
  }
  JOINT Spine
  {
    OFFSET 0.165834 0.87714 6.61349
    CHANNELS 3 Zrotation Xrotation Yrotation
    JOINT Spine1
    {
      OFFSET 7.38963 1.71661e-005 0
      CHANNELS 3 Zrotation Xrotation Yrotation
      JOINT Spine2
      {
        OFFSET 11.9445 1.14441e-005 0
        CHANNELS 3 Zrotation Xrotation Yrotation
        JOINT Spine3
        {
          OFFSET 14.7254 4.19617e-005 0
          CHANNELS 3 Zrotation Xrotation Yrotation
          JOINT Spine4
          {
            OFFSET 10.9679 0 0
            CHANNELS 3 Zrotation Xrotation Yrotation
            JOINT RightShoulder
            {
              OFFSET 2.46616 -1.6653 3.69651
              CHANNELS 3 Zrotation Xrotation Yrotation
              JOINT RightArm
              {
                OFFSET 13.0012 0 0
                CHANNELS 3 Zrotation Xrotation Yrotation
                JOINT RightForeArm
                {
                  OFFSET 28.7848 1.52588e-005 0
                  CHANNELS 3 Zrotation Xrotation Yrotation
                  JOINT RightHand
                  {
                    OFFSET 26.5688 1.52588e-005 0
                    CHANNELS 3 Zrotation Xrotation Yrotation
                    End Site
                    {
                      OFFSET 0 0 0
                    }
                  }
                }
              }
            }
            JOINT LeftShoulder
            {
              OFFSET 2.38034 -1.29275 -3.7523
              CHANNELS 3 Zrotation Xrotation Yrotation
              JOINT LeftArm
              {
                OFFSET 16.3182 6.10351e-005 0
                CHANNELS 3 Zrotation Xrotation Yrotation
                JOINT LeftForeArm
                {
                  OFFSET 27.0901 0 0
                  CHANNELS 3 Zrotation Xrotation Yrotation
                  JOINT LeftHand
                  {
                    OFFSET 24.5451 1.52588e-005 0
                    CHANNELS 3 Zrotation Xrotation Yrotation
                    End Site
                    {
                      OFFSET 0 0 0
                    }
                  }
                }
              }
            }
            JOINT Neck
            {
              OFFSET 5.0226 -0.0266342 0
              CHANNELS 3 Zrotation Xrotation Yrotation
              JOINT Head
              {
                OFFSET 6.69363 2.86102e-005 0
                CHANNELS 3 Zrotation Xrotation Yrotation
                End Site
                {
                  OFFSET 0 0 0
                }
              }
            }
          }
        }
      }
    }
  }
}
MOTION
Frames:	18
Frame Time:	0.0416667
-146.75 92.9265 -170.149 84.9805 -19.4095 85.2947 -171.863 3.27496 86.2143 -22.1263 13.8381 -3.35656 73.3665 15.8189 10.0124 37.7408 7.17347 5.06031 176.179 36.5902 93.4189 -30.8218 -5.48469 0.418599 69.4951 -4.03283 -2.11674 44.6377 0.195779 -8.05162 -0.125038 8.09976 -89.9907 10.6745 -0.244724 0.0406551 -0.996405 -0.242715 0.0513808 -23.5318 -0.2456 -0.034765 -3.51912 -0.245649 -0.0347881 94.2465 -51.8204 -94.018 23.9681 -9.36944 12.0627 -6.22263 -22.9555 -44.9453 0.252683 -0.399918 2.02597 -95.9291 -43.8811 67.9302 -19.056 26.9879 1.34676 3.05834 5.81358 -50.7606 11.4327 0.799658 2.93679 -15.3485 -13.6776 -5.05208 -12.5002 -13.2173 -11.0038 
-142.86 92.4744 -168.081 85.9938 -17.5277 84.7899 -172.129 -1.11513 86.5527 -20.2483 16.2964 -3.16381 72.747 15.1451 10.5673 38.8351 8.04313 3.60103 175.847 34.4162 90.9657 -20.603 -2.69569 0.28613 69.9008 -4.13129 -2.15221 42.5482 0.272995 -7.41213 -0.277603 8.06846 -89.8936 10.7375 -0.503629 0.258002 -0.93338 -0.491812 0.279918 -23.4693 -0.557906 0.0947108 -3.45663 -0.557908 0.0947003 94.9508 -53.2563 -92.7538 24.6173 -8.67394 14.1353 -6.16596 -23.3211 -43.5283 1.48187 -0.351385 3.6799 -95.2277 -43.731 68.9811 -19.9397 26.5334 1.85141 3.47163 7.80508 -47.5976 10.4005 0.757844 3.19873 -14.9792 -12.8637 -5.68365 -8.19513 -12.8105 -9.96854 
-138.541 91.4595 -165.706 86.3924 -17.2281 84.0686 -171.806 -4.85317 87.1028 -19.6944 18.3051 -3.27162 72.4325 14.5968 11.2036 41.1791 9.96519 3.29727 175.008 34.6928 89.4296 -18.248 2.36672 0.726731 71.3487 -4.27126 -2.17676 40.5654 0.388511 -4.93071 -0.308486 8.02839 -89.8472 10.8179 -0.543644 0.354501 -0.852983 -0.527538 0.378075 -23.3889 -0.625051 0.174719 -3.37629 -0.625054 0.174714 94.9274 -53.2196 -92.7931 25.581 -7.83654 15.8922 -6.67587 -23.8956 -42.3659 2.53945 -0.314026 3.48324 -95.136 -44.5383 69.3951 -20.6634 25.7129 2.68639 2.94258 8.73043 -44.8244 9.97002 0.789156 3.75086 -14.0957 -12.8166 -4.66279 -1.95169 -13.1753 -8.8912 
-133.647 90.4504 -163.066 85.929 -17.0495 84.4209 -171.458 -6.59718 88.8227 -21.9031 20.3342 -2.4209 70.8199 12.3723 9.88786 45.6469 13.8989 5.09891 173.846 36.4256 89.2214 -22.8936 6.65096 1.84303 70.1937 -3.67534 -1.9036 37.5401 0.408463 -3.35414 -0.356668 7.92943 -90.0154 11.0162 -0.717002 0.0396726 -0.654556 -0.714569 0.0711811 -23.1913 -0.695801 -0.177669 -3.17861 -0.695798 -0.177677 95.5537 -52.7154 -91.9227 25.3293 -7.15245 15.9182 -7.54961 -25.4205 -41.4786 3.72772 -0.273817 4.3204 -95.3635 -44.9307 69.1712 -23.0589 24.1625 3.79977 2.39395 10.5164 -40.3748 9.98965 0.823902 4.05898 -11.6005 -12.3126 -3.83256 2.03374 -12.7032 -6.82343 
-128.174 89.8353 -159.682 85.3105 -19.567 84.8204 -171.091 -7.99495 90.543 -24.919 22.0987 -1.61209 66.1218 7.50478 7.45304 50.8828 18.5904 6.3624 172.588 39.5118 91.1199 -34.5695 7.04779 3.1456 68.5917 -3.06046 -1.63581 38.4533 0.38426 -4.85641 -0.333596 7.94439 -90.152 10.9841 -0.734407 -0.232726 -0.686611 -0.743966 -0.200183 -23.2229 -0.63053 -0.442702 -3.21024 -0.630544 -0.442711 94.9879 -52.8817 -92.7474 23.5556 -5.86214 14.0025 -8.47596 -26.6857 -40.537 4.46525 -0.271593 4.15116 -95.6632 -45.3729 68.8545 -26.4443 20.6186 5.74724 2.04767 11.6276 -35.2389 10.0689 0.891703 4.62205 -7.98635 -11.4541 -2.8423 3.95635 -11.7593 -5.82563 
-122.055 89.8067 -155.743 85.5476 -22.5877 86.1615 -170.383 -8.03028 93.0156 -30.4563 23.7309 -0.89429 56.9411 -0.639035 2.60624 53.1645 22.0566 11.9645 170.944 37.6115 93.5182 -40.5706 6.41348 4.63659 69.0206 -3.2545 -1.73249 36.9382 0.373324 -4.94313 -0.399061 7.96842 -90.2925 10.935 -0.929615 -0.493841 -0.735724 -0.950441 -0.452455 -23.272 -0.738223 -0.7504 -3.25931 -0.738208 -0.750393 94.0584 -51.6907 -94.3157 24.1559 -4.38073 12.1525 -8.65758 -25.3043 -40.5416 3.60981 -0.261861 5.35106 -95.7595 -45.5137 68.753 -29.7734 18.8729 9.33085 -0.183286 9.63127 -30.9906 10.3413 0.93236 4.79231 -5.01395 -9.94598 -1.10788 4.40873 -10.2716 -5.60104 
-115.779 89.5742 -151.147 85.3517 -25.2382 85.9205 -169.737 -3.14021 94.8887 -41.2845 20.2875 -0.89333 43.9381 -9.65547 -5.61431 43.5485 13.303 14.6801 170.658 35.1291 94.8673 -46.2918 4.34912 4.78471 76.1132 -5.90453 -2.78088 30.0857 0.33439 -5.09113 -0.326655 7.81768 -90.2496 11.2371 -0.766174 -0.421179 -0.43371 -0.783965 -0.387056 -22.9695 -0.604167 -0.631973 -2.95681 -0.604174 -0.631978 93.5135 -49.885 -95.4381 25.5111 -4.50562 10.9807 -6.792 -21.6075 -40.742 0.433017 -0.387568 4.43304 -95.0579 -45.7703 69.918 -31.3039 19.342 10.0766 -1.60307 10.6062 -26.4154 7.36277 0.50918 2.7087 -3.43695 -9.23733 0.12785 3.92734 -9.61436 -5.57734 
-110.348 90.312 -146.96 87.5501 -28.3809 87.7904 -170.247 4.73717 95.8158 -57.1654 17.8357 -0.199068 43.2862 -9.80514 -2.77207 36.641 6.32184 12.7762 172.24 27.8931 96.438 -45.7502 3.92164 4.1156 78.7831 -7.01975 -3.1185 28.3886 0.155365 -2.69599 -0.0220223 7.90381 -90.2175 11.0654 -0.144571 -0.41873 -0.605591 -0.162868 -0.411963 -23.1403 -0.0120334 -0.442813 -3.12762 -0.0120665 -0.442827 93.4435 -49.1991 -95.6642 25.3907 -5.0335 8.68824 -6.3783 -19.3682 -43.5436 0.0551914 -0.363299 3.73577 -94.955 -45.5962 70.0208 -32.7644 18.2239 11.8904 -1.16826 10.9644 -25.8386 7.57659 0.564177 3.14527 -2.86145 -8.99615 -0.253975 4.5249 -9.33046 -5.17559 
-105.119 92.0744 -142.71 89.3572 -30.7265 88.6485 -172.057 13.6817 94.254 -64.2641 16.6615 0.441433 50.6281 -4.48388 0.905261 41.541 10.769 9.18723 174.355 18.899 96.8887 -40.2575 3.57498 2.83211 79.7576 -7.64516 -3.32975 29.0305 0.200403 -3.11982 0.303778 7.95123 -90.0855 10.9723 0.56524 -0.223518 -0.698582 0.554887 -0.248195 -23.2347 0.606298 -0.0432996 -3.22205 0.606302 -0.0433052 93.8435 -48.7804 -95.1093 24.7307 -5.49247 5.90585 -7.2477 -18.5334 -47.5128 -1.69706 -0.432847 2.66934 -94.9523 -45.472 69.9846 -33.4933 17.8482 13.1298 -1.14645 10.0974 -26.4962 8.47832 0.655752 3.47978 -2.72325 -8.74235 -0.497161 4.89285 -9.04029 -4.79208 
-100.01 94.2245 -138.565 89.3326 -34.5309 88.0289 -173.839 20.5326 91.8881 -58.775 13.55 0.684769 57.6469 0.394374 1.53408 38.5893 8.28883 14.0693 175.379 10.3429 96.3423 -31.6146 1.73539 1.93888 77.323 -6.99151 -3.19879 30.4441 0.140125 -1.13925 0.682081 7.8414 -89.8863 11.1912 1.41048 0.0879941 -0.478998 1.41297 0.025807 -23.0197 1.31881 0.507912 -3.00704 1.31881 0.507899 93.2171 -47.713 -96.2833 24.2334 -5.55818 3.64119 -11.5084 -18.8354 -51.7762 -5.09964 -0.548989 1.06835 -93.9803 -45.2542 71.4241 -34.7186 17.4968 14.3782 -1.00446 8.68898 -27.8903 7.36382 0.477917 2.29688 -3.23948 -7.86979 0.0598308 5.74451 -8.2439 -4.60038 
-94.8852 95.5496 -134.792 88.9093 -38.2781 87.1419 -175.221 24.6608 90.3049 -44.4211 12.1727 0.692436 61.5947 2.806 1.69728 41.1691 10.8364 13.8332 175.929 2.59949 95.2764 -23.7385 -2.5176 0.572108 74.5909 -6.48446 -3.14014 31.647 0.172635 -0.809771 1.02288 7.75935 -89.707 11.3531 2.17203 0.365544 -0.316056 2.18599 0.269546 -22.8632 1.96171 1.00165 -2.85061 1.96172 1.00165 93.1733 -46.5316 -96.572 23.262 -6.08449 0.776352 -11.2611 -16.898 -55.503 -3.02837 -0.417157 -0.00765336 -93.0465 -45.4416 72.9331 -35.4561 17.2086 15.7181 -0.948193 7.50804 -29.3597 6.22699 0.361831 1.65443 -1.53058 -6.99293 1.45022 4.82571 -7.44247 -4.33889 
-89.2106 95.5044 -131.275 87.2294 -41.9293 86.1233 -175.264 27.3201 89.9893 -25.3389 16.0369 -0.342311 62.5908 3.05559 1.50526 42.0472 11.877 15.428 174.887 -2.73603 93.722 -18.654 -6.47004 0.42016 74.0454 -6.33633 -3.09401 33.7993 0.266113 -0.423401 1.25263 7.60087 -89.6543 11.6695 2.65373 0.412521 0.00127338 2.66932 0.295233 -22.5521 2.407 1.19143 -2.53941 2.40702 1.19144 92.7864 -44.7652 -97.5484 22.1621 -6.17395 -2.56325 -12.9621 -15.7835 -60.664 -1.7772 -0.392017 0.0177471 -93.2755 -46.4663 72.8749 -35.799 16.5821 17.7107 -0.567892 6.74991 -31.0106 6.0964 0.336745 1.43228 0.120279 -5.4643 3.57824 4.44169 -6.14646 -4.01828 
-83.3029 94.5431 -127.482 86.4746 -45.7215 86.1399 -174.455 28.7369 90.6991 -9.5907 16.8405 -1.67908 63.7177 3.259 1.91198 44.1747 14.1064 15.9538 173.56 -7.60306 91.7826 -17.2587 -10.1458 0.149014 73.8176 -6.38349 -3.11551 37.9501 0.474558 0.753924 1.45595 7.57541 -89.6517 11.7213 3.05931 0.372651 0.0539868 3.07275 0.237505 -22.5061 2.80576 1.27556 -2.49342 2.80578 1.27556 92.4136 -42.7675 -98.592 20.9902 -6.52574 -6.27301 -14.4584 -15.4169 -64.7556 -1.83386 -0.431407 1.41575 -92.8644 -47.1599 73.7009 -35.6681 16.334 18.4875 0.207326 6.84393 -32.8344 5.25174 0.32768 1.90429 2.02042 -3.79991 5.20052 4.18838 -4.71005 -3.53103 
-77.196 93.0184 -123.467 87.9474 -50.6993 87.0726 -172.636 29.0889 91.2598 -7.35079 11.3158 -3.13974 65.0278 4.11032 3.69154 44.1786 14.0361 15.434 173.652 -9.10544 89.6214 -25.1133 -15.1323 -2.829 73.5946 -6.6086 -3.22092 44.5502 0.726964 -0.834446 1.74357 7.69232 -89.5455 11.4852 3.68139 0.530213 -0.180604 3.70115 0.367445 -22.7511 3.35165 1.61327 -2.73844 3.35168 1.61327 91.7937 -41.6963 -99.8898 20.0981 -6.81067 -8.78397 -15.5601 -15.9734 -66.1278 -4.39098 -0.540806 1.51737 -91.939 -47.9687 75.327 -34.6896 16.377 18.1289 1.27138 8.03016 -33.7224 3.88016 0.209857 1.12557 3.60904 -2.02236 5.24209 4.30613 -2.92405 -2.17983 
-69.9885 92.0093 -118.255 89.599 -52.7106 86.9371 -171.162 28.662 89.6197 -15.9885 7.23342 -4.29066 62.5999 2.03393 -1.23654 41.5324 11.1195 13.0671 174.142 -8.47208 86.8753 -36.6574 -17.7765 -6.41323 65.7664 -3.4981 -1.88364 51.7143 1.37754 1.75695 1.76083 7.71907 -89.2577 11.4218 3.85009 1.08757 -0.243757 3.89422 0.916821 -22.8119 3.3451 2.1954 -2.79928 3.34511 2.19539 91.6778 -42.6472 -99.8598 20.5315 -7.32535 -7.8932 -14.9899 -16.2939 -64.8538 -5.8756 -0.586467 1.3344 -92.4688 -48.0163 74.535 -33.4981 15.5794 17.8385 1.69038 8.61815 -33.0236 4.97146 0.313498 1.91447 4.24412 -1.04351 3.41727 3.86007 -1.63074 -1.16658 
-62.5217 91.8097 -112.491 90.1586 -50.3831 85.739 -170.107 29.462 87.3257 -26.4106 11.5303 -5.51482 57.4269 -1.85338 0.752305 39.0565 8.4148 7.22278 175.635 -1.7981 84.8539 -50.6816 -17.1003 -7.06995 44.6205 3.85799 3.81734 44.7662 1.2066 3.45373 1.3758 7.5835 -88.9849 11.6823 3.21266 1.68834 0.0144063 3.28385 1.5452 -22.5338 2.55685 2.57598 -2.52117 2.55686 2.57598 91.6928 -44.7071 -99.3554 22.1774 -8.28263 -3.59749 -12.6898 -16.8577 -61.1501 -8.00933 -0.665377 1.53954 -94.0085 -47.583 72.0769 -31.6718 15.8165 15.9151 1.16884 9.71004 -30.4451 5.56425 0.394021 2.64411 3.26069 -0.662918 1.22104 3.54197 -0.823958 0.0309935 
-55.7355 92.1999 -107.843 92.6854 -48.3423 87.138 -169.994 25.6671 85.6854 -32.836 13.378 -5.96907 63.1055 3.02749 3.48879 33.6605 3.7274 3.5494 177.893 6.62992 84.6421 -65.6564 -8.20662 -5.68784 35.3639 5.40734 5.71284 31.4633 0.390861 -5.67229 1.01228 7.70133 -89.0337 11.4512 2.46534 1.67439 -0.218377 2.53663 1.56424 -22.7566 1.84825 2.33785 -2.74398 1.84827 2.33785 92.2649 -45.0397 -98.3437 24.7049 -9.45915 0.765516 -9.68332 -17.185 -56.4905 -8.22635 -0.703308 2.05555 -95.6642 -47.5906 69.578 -29.2327 15.9272 11.74 1.69003 10.595 -30.5688 5.92256 0.474656 3.39586 2.87672 0.0473686 2.17789 3.36712 -0.2792 -0.361851 
-48.9191 94.0349 -103.512 94.4297 -46.2458 89.2893 -171.155 17.931 85.5355 -30.5736 14.5466 -5.17634 65.7763 5.61699 4.50228 31.6075 2.12781 1.67774 178.59 15.6248 86.1639 -71.093 -1.45924 -4.37713 44.5323 1.99285 1.98084 31.6109 0.344373 -5.11949 0.62233 7.81602 -89.256 11.2313 1.58472 1.32496 -0.439293 1.64152 1.25393 -22.9734 1.11332 1.73992 -2.96074 1.11332 1.73993 92.4964 -46.9172 -97.5834 24.9752 -10.4171 4.73656 -8.80672 -19.4878 -52.6781 -6.66143 -0.603135 1.26864 -95.7003 -47.6873 69.5537 -26.1662 15.9043 7.02438 1.99073 9.00564 -33.801 9.23107 0.670408 3.10851 1.5293 0.708141 2.22795 4.00495 0.471509 0.674206 
